<svg width="490" height="490" viewBox="0 0 490 490" fill="none" xmlns="http://www.w3.org/2000/svg">
<g clip-path="url(#clip0_236_753)">
<path d="M23.1466 10.9899C170.884 157.941 318.653 304.922 466.39 451.873C474.26 444.229 482.13 436.555 490.031 428.911C475.68 415.343 461.298 401.774 446.916 388.236C393.741 338.045 340.565 287.854 287.389 237.663C319.795 229.405 353.897 221.577 389.636 214.363C423.8 207.487 456.854 201.716 488.58 196.896C450.157 178.785 416.301 163.589 388.617 151.494C294.827 110.512 239.738 90.9272 90.9818 31.6495C61.4775 19.8922 34.9668 9.24007 12.0979 0C15.7705 3.65305 19.4431 7.3061 23.1466 10.9899ZM391.889 197.572C349.638 197.725 307.357 197.909 265.107 198.063C229.09 164.971 193.105 131.909 157.089 98.8166C235.325 131.725 313.591 164.664 391.889 197.572Z" fill="#D92387"/>
<path d="M12.4683 28.3955C8.33281 24.2513 4.1664 20.1071 0 15.9629C8.45626 37.2672 18.6408 63.0535 30.0598 92.2472C89.8092 245 108.82 299.919 148.509 387.837C160.175 413.685 176.254 448.22 196.593 488.619C200.08 456.386 204.833 422.158 211.221 386.272C217.394 351.614 224.43 318.982 231.961 288.468C283.161 341.33 334.331 394.223 385.531 447.084C399.388 461.39 413.246 475.725 427.103 490.031C435.435 481.926 443.768 473.822 452.101 465.718C305.598 319.934 159.033 174.149 12.4683 28.3955ZM195.728 395.236C163.477 317.017 131.226 238.83 98.9752 160.611C131.844 196.774 164.712 232.936 197.58 269.129C196.963 311.154 196.346 353.179 195.728 395.236Z" fill="#D92387"/>
</g>
<defs>
<clipPath id="clip0_236_753">
<rect width="490" height="490" fill="white"/>
</clipPath>
</defs>
</svg>
